<svg width="60" height="56" viewBox="0 0 60 56" fill="none" xmlns="http://www.w3.org/2000/svg">
<path d="M47.1625 13.5825L39.8165 2.82297C39.272 2.02718 38.5484 1.37441 37.7055 0.918744C36.8626 0.463082 35.9247 0.217651 34.9696 0.20279L21.0287 0H21C13.8026 0 8.28038 1.22067 4.72375 7.17803C1.4125 12.7233 0 22.1695 0 38.7628V40.7907H4.56962L1.628 56H5.70425L8.64587 40.7907H10C13.2665 40.8203 16.4133 39.5459 18.761 37.2429C20.8834 35.1838 22.4143 32.3668 23.1884 29.0965L23.1954 29.0671L26.6257 12.4H22.5395L19.2921 28.1781C18.3031 32.3201 15.3457 36.7349 10 36.7349H4.0075C4.11613 22.3791 5.40525 13.8678 8.14563 9.2778C10.4456 5.42478 13.8075 4.05708 20.9861 4.05518L34.9121 4.25797C35.2305 4.26288 35.5431 4.34467 35.8241 4.49656C36.1051 4.64846 36.3463 4.86607 36.5277 5.13136L44.8375 17.3012L56 19.1877V21.3371L54.1385 31.4033C53.5891 34.3743 52.65 35.8709 48.7988 36.34L33.0105 39.0788L32.9061 56H36.9061L36.9895 42.5026L49.327 40.3607C52.122 40.0122 54.1841 39.0989 55.6302 37.5694C56.8665 36.2616 57.6189 34.5909 58.0701 32.1508L60 21.7141V15.7519L47.1625 13.5825Z" fill="#F4A62C"/>
</svg>
