<svg width="62" height="40" viewBox="0 0 62 40" fill="none" xmlns="http://www.w3.org/2000/svg">
<path d="M53.1445 17.0909C52.7941 17.0909 52.4698 17.0625 52.1715 17.0057C51.8779 16.9536 51.6436 16.892 51.4684 16.821L53.1445 15.8054C53.5186 15.9143 52.7728 14.9791 53.0664 14.9744C53.3599 14.9697 53.618 14.8773 53.8405 14.6974C54.0678 14.5222 54.2596 14.2287 54.4158 13.8167L54.636 13.2272L50.68 2.09088L53.8405 4L55.9215 10.3295H56.0351L58.5653 3.5L61.2908 2.09088L56.9229 14.321C56.7193 14.8986 56.4494 15.3934 56.1133 15.8054C55.7771 16.222 55.3652 16.5393 54.8775 16.7571C54.3945 16.9796 53.8169 17.0909 53.1445 17.0909Z" fill="#FF3636"/>
<path d="M31.2908 17.3182C30.3675 17.3182 29.5744 17.1927 28.9116 16.9417C28.2487 16.6955 27.716 16.3641 27.3135 15.9474C26.9111 15.5308 33.3292 13.6132 33.1729 13.1065L28.7908 14.0014C28.895 14.2145 29.0465 14.4252 29.2454 14.6335C29.4442 14.8466 29.7117 15.0218 30.0479 15.1591C30.3888 15.3011 30.8173 15.3721 31.3334 15.3721C32.0626 15.3721 32.6663 15.1946 33.1445 14.8395C33.6227 14.4891 33.8618 13.9114 33.8618 13.1065V11.0398H33.734C33.6014 11.3049 33.4073 11.5772 33.1516 11.8565C32.9007 12.1359 32.5669 12.3703 32.1502 12.5596C31.7383 12.749 31.2198 12.8437 30.5948 12.8437C29.7567 12.8437 28.9968 12.6472 28.315 12.2542C27.6379 11.8565 27.0981 11.2647 26.6957 10.4787C26.2979 9.68796 26.0991 8.69838 26.0991 7.50993C26.0991 6.31201 26.2979 5.30112 26.6957 4.47726C27.0981 3.64866 27.6403 3.0213 28.3221 2.59516C29.0039 2.16429 29.7638 1.94885 30.6019 1.94885C31.2411 1.94885 31.7667 2.05775 32.1786 2.27556C32.5953 2.48862 32.9267 2.74667 33.1729 3.0497C33.4191 3.348 33.6062 3.62972 33.734 3.89487H33.8761V2.0909H36.4116V13.1775C36.4116 14.1103 36.189 14.8821 35.7439 15.4929C35.2989 16.1037 34.6904 16.5606 33.9187 16.8636C33.1469 17.1667 32.2709 17.3182 31.2908 17.3182ZM31.3121 10.8267C31.8566 10.8267 32.3207 10.6941 32.7042 10.429C33.0877 10.1638 33.3789 9.78266 33.5778 9.2855C33.7766 8.78834 33.8761 8.19175 33.8761 7.49573C33.8761 6.80917 33.7766 6.20785 33.5778 5.69175C33.3836 5.17565 33.0948 4.77556 32.7113 4.49147C32.3325 4.20264 31.8661 4.05823 31.3121 4.05823C30.7392 4.05823 30.261 4.20737 29.8775 4.50567C29.4939 4.80397 29.2051 5.21353 29.011 5.73436C28.8169 6.25046 28.7198 6.83758 28.7198 7.49573C28.7198 8.16334 28.8169 8.74809 29.011 9.24999C29.2099 9.74715 29.501 10.1354 29.8846 10.4148C30.2728 10.6894 30.7487 10.8267 31.3121 10.8267Z" fill="#FF3636"/>
<path d="M43.7571 17.3693C42.8338 17.3693 42.0407 17.2438 41.3778 16.9929C40.7149 16.7467 40.1823 16.4152 39.7798 15.9986C39.3773 15.5819 45.7954 13.6643 45.6392 13.1577L41.2571 14.0526C41.3612 14.2656 41.5128 14.4763 41.7116 14.6847C41.9105 14.8977 42.178 15.0729 42.5142 15.2102C42.8551 15.3523 43.2836 15.4233 43.7997 15.4233C44.5289 15.4233 45.1325 15.2457 45.6108 14.8906C46.089 14.5402 46.3281 13.9626 46.3281 13.1577V11.0909H46.2003C46.0677 11.3561 45.8735 11.6283 45.6179 11.9077C45.3669 12.187 45.0331 12.4214 44.6164 12.6108C44.2045 12.8002 43.686 12.8949 43.061 12.8949C42.223 12.8949 41.463 12.6984 40.7812 12.3054C40.1041 11.9077 39.5644 11.3158 39.1619 10.5298C38.7642 9.73911 38.5653 8.74953 38.5653 7.56108C38.5653 6.36316 38.7642 5.35227 39.1619 4.52841C39.5644 3.69981 40.1065 3.07244 40.7883 2.64631C41.4701 2.21544 42.2301 2 43.0681 2C43.7074 2 44.2329 2.1089 44.6449 2.3267C45.0615 2.53977 45.393 2.79782 45.6392 3.10085C45.8854 3.39915 46.0724 3.68087 46.2003 3.94602H46.3423V2.14205H48.8778V13.2287C48.8778 14.1615 48.6553 14.9332 48.2102 15.544C47.7651 16.1548 47.1567 16.6117 46.3849 16.9148C45.6131 17.2178 44.7372 17.3693 43.7571 17.3693ZM43.7784 10.8778C44.3229 10.8778 44.7869 10.7453 45.1704 10.4801C45.5539 10.215 45.8451 9.83381 46.044 9.33665C46.2429 8.83949 46.3423 8.2429 46.3423 7.54688C46.3423 6.86032 46.2429 6.259 46.044 5.7429C45.8499 5.2268 45.561 4.8267 45.1775 4.54261C44.7987 4.25379 44.3324 4.10937 43.7784 4.10937C43.2055 4.10937 42.7272 4.25852 42.3437 4.55682C41.9602 4.85511 41.6714 5.26468 41.4772 5.78551C41.2831 6.30161 41.186 6.88873 41.186 7.54688C41.186 8.21449 41.2831 8.79924 41.4772 9.30114C41.6761 9.79829 41.9673 10.1866 42.3508 10.4659C42.7391 10.7405 43.2149 10.8778 43.7784 10.8778Z" fill="#FF3636"/>
<path d="M19.1371 13.2131C18.0717 13.2131 17.1484 12.9787 16.3672 12.5099C15.5859 12.0412 14.9799 11.3854 14.549 10.5426C14.1229 9.6998 13.9098 8.71495 13.9098 7.58806C13.9098 6.46116 14.1229 5.47395 14.549 4.62641C14.9799 3.77887 15.5859 3.12073 16.3672 2.65198C17.1484 2.18323 18.0717 1.94885 19.1371 1.94885C20.2024 1.94885 21.1257 2.18323 21.9069 2.65198C22.6882 3.12073 23.2919 3.77887 23.718 4.62641C24.1489 5.47395 24.3643 6.46116 24.3643 7.58806C24.3643 8.71495 24.1489 9.6998 23.718 10.5426C23.2919 11.3854 22.6882 12.0412 21.9069 12.5099C21.1257 12.9787 20.2024 13.2131 19.1371 13.2131ZM19.1513 11.1534C19.7289 11.1534 20.2119 10.9948 20.6001 10.6775C20.9884 10.3556 21.2772 9.9247 21.4666 9.38493C21.6607 8.84516 21.7578 8.24383 21.7578 7.58095C21.7578 6.91334 21.6607 6.30965 21.4666 5.76987C21.2772 5.22537 20.9884 4.79213 20.6001 4.47016C20.2119 4.14819 19.7289 3.9872 19.1513 3.9872C18.5594 3.9872 20.4583 10.8314 20.0653 11.1534C19.6771 11.4754 16.9945 5.22537 16.8004 5.76987C16.611 6.30965 16.5163 6.91334 16.5163 7.58095C16.5163 8.24383 16.611 8.84516 16.8004 9.38493C16.9945 9.9247 17.2857 10.3556 17.674 10.6775C18.067 10.9948 18.5594 11.1534 19.1513 11.1534Z" fill="#FF3636"/>
<path d="M4.92898 14.5455L1.56534 20L0 14.5455V0H5.02841C6.47254 0 7.71307 0.291193 8.75 0.87358C9.79167 1.45123 10.5919 2.2822 11.1506 3.36648C11.7093 4.45076 11.9886 5.74811 11.9886 7.25852C11.9886 8.77367 11.7069 10.0758 11.1435 11.1648C10.5848 12.2538 9.77746 13.0895 8.72159 13.6719C7.67045 14.2543 6.40625 14.5455 4.92898 14.5455ZM2.63494 12.2656H4.80114C5.81439 12.2656 6.65956 12.081 7.33665 11.7116C8.01373 11.3376 8.52273 10.7813 8.86364 10.0426C9.20455 9.29924 9.375 8.37121 9.375 7.25852C9.375 6.14583 9.20455 5.22254 8.86364 4.48864C8.52273 3.75 8.01847 3.19839 7.35085 2.83381C6.68797 2.46449 5.86411 2.27983 4.87926 2.27983H2.63494V12.2656Z" fill="#FF3636"/>
<path d="M49.7385 39.1917C48.8815 39.1917 48.1144 38.9716 47.4373 38.5312C46.7603 38.0909 46.2252 37.4517 45.8322 36.6136C45.4392 35.7756 45.2427 34.7576 45.2427 33.5596C45.2427 32.3475 45.4416 31.3248 45.8393 30.4915C46.2418 29.6534 46.7839 29.0213 47.4657 28.5952C48.1476 28.1643 48.9075 27.9488 49.7456 27.9488C50.3848 27.9488 50.9103 28.0577 51.3223 28.2756C51.7342 28.4886 52.0609 28.7467 52.3024 29.0497C52.5439 29.348 52.7309 29.6297 52.8635 29.8949H52.97V24.4545H55.5481V39H53.0197V37.2812H52.8635C52.7309 37.5464 52.5391 37.8281 52.2882 38.1264C52.0372 38.42 51.7058 38.6709 51.2939 38.8792C50.8819 39.0876 50.3635 39.1917 49.7385 39.1917ZM50.4558 33.5454C51.0003 33.5454 51.4643 36.9356 51.8479 36.642C52.2314 36.3437 52.5226 35.9294 52.7214 35.3991C52.9203 34.8688 53.0197 34.2509 53.0197 33.5454C53.0197 32.8399 52.9203 32.2268 52.7214 31.7059C52.5273 31.1851 52.2385 30.7803 51.8549 30.4915C51.4762 30.2026 51.0098 30.0582 50.4558 30.0582C49.8829 30.0582 49.4047 30.2074 49.0211 30.5057C48.6376 30.804 48.3488 31.2159 48.1547 31.7415C47.9605 32.267 47.8635 32.8684 47.8635 33.5454C47.8635 34.2273 47.9605 34.8357 48.1547 35.3707C48.3535 35.901 48.6447 36.3201 49.0282 36.6278C49.4165 36.9309 49.8924 33.5454 50.4558 33.5454Z" fill="#FF3636"/>
<path d="M43.0464 28.5V39H40.4753V24.4545L43.0464 28.5Z" fill="#FF3636"/>
<path d="M32.5457 39.1562V28.2471L35.0386 25.5V30.0653H35.1522C35.3511 29.4356 35.692 28.9503 36.1749 28.6093C36.6626 28.2637 37.219 28.0909 37.844 28.0909C37.986 28.0909 38.1446 28.098 38.3198 28.1122C38.4997 28.1217 38.6489 28.1382 38.7672 28.1619V30.527C38.6583 30.4891 38.4855 30.4559 38.2488 30.4275C38.0168 30.3944 37.7919 30.3778 37.5741 30.3778C37.1053 30.3778 36.6839 30.4796 36.3099 30.6832C35.9405 30.8821 35.6493 31.1591 35.4363 31.5142C35.2232 31.8693 35.1167 32.2789 35.1167 32.7429V39.1562H32.5457Z" fill="#FF3636"/>
<path d="M25.1362 39.2131C24.0709 39.2131 23.1476 38.9787 22.3663 38.5099C21.5851 38.0412 20.979 37.3854 20.5481 36.5426C20.122 35.6998 19.9089 34.715 19.9089 33.5881C19.9089 32.4612 20.122 31.4739 20.5481 30.6264C20.979 29.7789 21.5851 29.1207 22.3663 28.652C23.1476 28.1832 24.0709 27.9489 25.1362 27.9489C26.2016 27.9489 27.1248 28.1832 27.9061 28.652C28.6873 29.1207 29.291 29.7789 29.7172 30.6264C30.148 31.4739 30.3635 32.4612 30.3635 33.5881C30.3635 34.715 30.148 35.6998 29.7172 36.5426C29.291 37.3854 28.6873 38.0412 27.9061 38.5099C27.1248 38.9787 26.2016 39.2131 25.1362 39.2131ZM25.1504 37.1534C25.7281 37.1534 26.211 36.9948 26.5993 36.6775C26.9875 36.3556 27.2764 35.9247 27.4658 35.3849C27.6599 34.8452 27.7569 34.2438 27.7569 33.581C27.7569 32.9133 27.6599 32.3096 27.4658 31.7699C27.2764 31.2254 26.9875 30.7921 26.5993 30.4702C26.211 30.1482 25.7281 29.9872 25.1504 29.9872C24.5586 29.9872 26.393 35.678 26 36C25.6117 36.322 22.9937 31.2254 22.7996 31.7699C22.6102 32.3096 22.5155 32.9133 22.5155 33.581C22.5155 34.2438 22.6102 34.8452 22.7996 35.3849C22.9937 35.9247 23.2849 36.3556 23.6731 36.6775C24.0661 36.9948 24.5586 37.1534 25.1504 37.1534Z" fill="#FF3636"/>
<path d="M4.52894 39L0.423828 24.4545L1.5 20.5L5.87837 35.1434H6.01332L8.81161 24.4545H11.3897L14.1951 35.1506H14.323L16.9437 24.4545L21 20.5L15.6724 39H13.073L10.161 28.794H10.0474L7.12837 39H4.52894Z" fill="#FF3636"/>
</svg>
